<?xml version="1.0" standalone="no"?>
<svg xmlns:xlink="http://www.w3.org/1999/xlink" xmlns="http://www.w3.org/2000/svg" class="vtree" width="960" height="800"><style>
.vtree-node text { font: 14px sans-serif; }
.vtree-link { fill: none; stroke: #888; stroke-width: 2px; }
.vtree-table { stroke-width: 2px; stroke: steelblue; }
path.vtree-table { fill: white; }
g.vtree-node rect { fill: white; stroke: black; stroke-width: 1px; }
g.vtree-node rect.number-text { fill: #d8f0ed; }
g.vtree-node rect.string-text { fill: #e7f0db; }
g.vtree-node rect.boolean-text { fill: #e1d8f0; }
g.vtree-node rect.null-text { fill: #888; }
</style><g class="vtree-root" transform="translate(466.7996941364337,298.5495567237847)scale(0.2642545101403458)"><g class="vtree-node" transform="translate(480,106)"><g class="vtree-node" transform="translate(-41,0)"><path class="vtree-link" d="M41,12C41,59 -1380,59 -1380,106"/><g class="vtree-node" transform="translate(41,74)"><path class="vtree-link" d="M-1421,32C-1421,32 480,32 480,32"/><g class="vtree-node" transform="translate(-1524,0)"><path class="vtree-link" d="M103,32C103,79 -30,79 -30,126"/><g class="vtree-node" transform="translate(103,94)"><path class="vtree-link" d="M-133,32C-133,32 346,32 346,32"/><g class="vtree-node" transform="translate(-265,0)"><path class="vtree-link" d="M132,32C132,79 28,79 28,126"/><g class="vtree-node" transform="translate(132,94)"><path class="vtree-link" d="M-104,32C-104,32 243,32 243,32"/><g class="vtree-node" transform="translate(-171,0)"><path class="vtree-link" d="M67,32C67,79 -52,79 -52,126"/><g class="vtree-node" transform="translate(67,94)"><path class="vtree-link" d="M-119,32C-119,32 124,32 124,32"/><g class="vtree-node" transform="translate(-238,0)"><path class="vtree-link" d="M119,32C119,79 119,79 119,126"/><g class="vtree-node" transform="translate(119,94)"><g class="vtree-node" transform="translate(-101,0)"><g transform="translate(0,20)"><g transform="translate(0,0)"><rect class="string-text" x="0" y="0" width="44" height="24"/><text x="4" y="20">name</text></g><g transform="translate(44,0)"><rect class="string-text" x="0" y="0" width="158" height="24"/><text x="4" y="20">BUY_INSURANCE: Yes</text></g></g><g><text x="101" y="16" text-anchor="middle">children[0]</text></g></g></g><g transform="translate(0,20)"><g transform="translate(0,0)"><rect class="string-text" x="0" y="0" width="44" height="24"/><text x="4" y="20">name</text></g><g transform="translate(44,0)"><rect class="string-text" x="0" y="0" width="193" height="24"/><text x="4" y="20">N_OF_DEPENDENTS &lt;= 0.5</text></g></g><g><text x="119" y="16" text-anchor="middle">children[0]</text></g></g><g class="vtree-node" transform="translate(9,0)"><path class="vtree-link" d="M115,32C115,79 115,79 115,126"/><g class="vtree-node" transform="translate(115,94)"><g class="vtree-node" transform="translate(-99,0)"><g transform="translate(0,20)"><g transform="translate(0,0)"><rect class="string-text" x="0" y="0" width="44" height="24"/><text x="4" y="20">name</text></g><g transform="translate(44,0)"><rect class="string-text" x="0" y="0" width="153" height="24"/><text x="4" y="20">BUY_INSURANCE: No</text></g></g><g><text x="99" y="16" text-anchor="middle">children[0]</text></g></g></g><g transform="translate(0,20)"><g transform="translate(0,0)"><rect class="string-text" x="0" y="0" width="44" height="24"/><text x="4" y="20">name</text></g><g transform="translate(44,0)"><rect class="string-text" x="0" y="0" width="185" height="24"/><text x="4" y="20">N_OF_DEPENDENTS &gt; 0.5</text></g></g><g><text x="115" y="16" text-anchor="middle">children[1]</text></g></g></g><g transform="translate(0,20)"><g transform="translate(0,0)"><rect class="string-text" x="0" y="0" width="44" height="24"/><text x="4" y="20">name</text></g><g transform="translate(44,0)"><rect class="string-text" x="0" y="0" width="90" height="24"/><text x="4" y="20">AGE &lt;= 32.5</text></g></g><g><text x="67" y="16" text-anchor="middle">children[0]</text></g></g><g class="vtree-node" transform="translate(180,0)"><path class="vtree-link" d="M63,32C63,79 63,79 63,126"/><g class="vtree-node" transform="translate(63,94)"><g class="vtree-node" transform="translate(-99,0)"><g transform="translate(0,20)"><g transform="translate(0,0)"><rect class="string-text" x="0" y="0" width="44" height="24"/><text x="4" y="20">name</text></g><g transform="translate(44,0)"><rect class="string-text" x="0" y="0" width="153" height="24"/><text x="4" y="20">BUY_INSURANCE: No</text></g></g><g><text x="99" y="16" text-anchor="middle">children[0]</text></g></g></g><g transform="translate(0,20)"><g transform="translate(0,0)"><rect class="string-text" x="0" y="0" width="44" height="24"/><text x="4" y="20">name</text></g><g transform="translate(44,0)"><rect class="string-text" x="0" y="0" width="81" height="24"/><text x="4" y="20">AGE &gt; 32.5</text></g></g><g><text x="63" y="16" text-anchor="middle">children[1]</text></g></g></g><g transform="translate(0,20)"><g transform="translate(0,0)"><rect class="string-text" x="0" y="0" width="44" height="24"/><text x="4" y="20">name</text></g><g transform="translate(44,0)"><rect class="string-text" x="0" y="0" width="220" height="24"/><text x="4" y="20">CREDIT_CARD_LIMITS &lt;= 650.0</text></g></g><g><text x="132" y="16" text-anchor="middle">children[0]</text></g></g><g class="vtree-node" transform="translate(218,0)"><path class="vtree-link" d="M128,32C128,79 128,79 128,126"/><g class="vtree-node" transform="translate(128,94)"><g class="vtree-node" transform="translate(-99,0)"><g transform="translate(0,20)"><g transform="translate(0,0)"><rect class="string-text" x="0" y="0" width="44" height="24"/><text x="4" y="20">name</text></g><g transform="translate(44,0)"><rect class="string-text" x="0" y="0" width="153" height="24"/><text x="4" y="20">BUY_INSURANCE: No</text></g></g><g><text x="99" y="16" text-anchor="middle">children[0]</text></g></g></g><g transform="translate(0,20)"><g transform="translate(0,0)"><rect class="string-text" x="0" y="0" width="44" height="24"/><text x="4" y="20">name</text></g><g transform="translate(44,0)"><rect class="string-text" x="0" y="0" width="212" height="24"/><text x="4" y="20">CREDIT_CARD_LIMITS &gt; 650.0</text></g></g><g><text x="128" y="16" text-anchor="middle">children[1]</text></g></g></g><g transform="translate(0,20)"><g transform="translate(0,0)"><rect class="string-text" x="0" y="0" width="44" height="24"/><text x="4" y="20">name</text></g><g transform="translate(44,0)"><rect class="string-text" x="0" y="0" width="162" height="24"/><text x="4" y="20">BANK_FUNDS &lt;= 225.5</text></g></g><g><text x="103" y="16" text-anchor="middle">children[0]</text></g></g><g class="vtree-node" transform="translate(381,0)"><path class="vtree-link" d="M99,32C99,79 -484,79 -484,126"/><g class="vtree-node" transform="translate(99,94)"><path class="vtree-link" d="M-583,32C-583,32 838,32 838,32"/><g class="vtree-node" transform="translate(-710,0)"><path class="vtree-link" d="M127,32C127,79 -188,79 -188,126"/><g class="vtree-node" transform="translate(127,94)"><path class="vtree-link" d="M-315,32C-315,32 523,32 523,32"/><g class="vtree-node" transform="translate(-434,0)"><path class="vtree-link" d="M119,32C119,79 -60,79 -60,126"/><g class="vtree-node" transform="translate(119,94)"><path class="vtree-link" d="M-179,32C-179,32 345,32 345,32"/><g class="vtree-node" transform="translate(-353,0)"><path class="vtree-link" d="M174,32C174,79 5,79 5,126"/><g class="vtree-node" transform="translate(174,94)"><path class="vtree-link" d="M-169,32C-169,32 176,32 176,32"/><g class="vtree-node" transform="translate(-340,0)"><path class="vtree-link" d="M171,32C171,79 171,79 171,126"/><g class="vtree-node" transform="translate(171,94)"><g class="vtree-node" transform="translate(-101,0)"><g transform="translate(0,20)"><g transform="translate(0,0)"><rect class="string-text" x="0" y="0" width="44" height="24"/><text x="4" y="20">name</text></g><g transform="translate(44,0)"><rect class="string-text" x="0" y="0" width="158" height="24"/><text x="4" y="20">BUY_INSURANCE: Yes</text></g></g><g><text x="101" y="16" text-anchor="middle">children[0]</text></g></g></g><g transform="translate(0,20)"><g transform="translate(0,0)"><rect class="string-text" x="0" y="0" width="44" height="24"/><text x="4" y="20">name</text></g><g transform="translate(44,0)"><rect class="string-text" x="0" y="0" width="297" height="24"/><text x="4" y="20">T_AMOUNT_AUTOM_PAYMENTS &lt;= 1298....</text></g></g><g><text x="171" y="16" text-anchor="middle">children[0]</text></g></g><g class="vtree-node" transform="translate(11,0)"><path class="vtree-link" d="M165,32C165,79 165,79 165,126"/><g class="vtree-node" transform="translate(165,94)"><g class="vtree-node" transform="translate(-99,0)"><g transform="translate(0,20)"><g transform="translate(0,0)"><rect class="string-text" x="0" y="0" width="44" height="24"/><text x="4" y="20">name</text></g><g transform="translate(44,0)"><rect class="string-text" x="0" y="0" width="153" height="24"/><text x="4" y="20">BUY_INSURANCE: No</text></g></g><g><text x="99" y="16" text-anchor="middle">children[0]</text></g></g></g><g transform="translate(0,20)"><g transform="translate(0,0)"><rect class="string-text" x="0" y="0" width="44" height="24"/><text x="4" y="20">name</text></g><g transform="translate(44,0)"><rect class="string-text" x="0" y="0" width="285" height="24"/><text x="4" y="20">T_AMOUNT_AUTOM_PAYMENTS &gt; 1298.0</text></g></g><g><text x="165" y="16" text-anchor="middle">children[1]</text></g></g></g><g transform="translate(0,20)"><g transform="translate(0,0)"><rect class="string-text" x="0" y="0" width="44" height="24"/><text x="4" y="20">name</text></g><g transform="translate(44,0)"><rect class="string-text" x="0" y="0" width="303" height="24"/><text x="4" y="20">MONEY_MONTLY_OVERDRAWN &lt;= 53.835...</text></g></g><g><text x="174" y="16" text-anchor="middle">children[0]</text></g></g><g class="vtree-node" transform="translate(171,0)"><path class="vtree-link" d="M174,32C174,79 174,79 174,126"/><g class="vtree-node" transform="translate(174,94)"><g class="vtree-node" transform="translate(-101,0)"><g transform="translate(0,20)"><g transform="translate(0,0)"><rect class="string-text" x="0" y="0" width="44" height="24"/><text x="4" y="20">name</text></g><g transform="translate(44,0)"><rect class="string-text" x="0" y="0" width="158" height="24"/><text x="4" y="20">BUY_INSURANCE: Yes</text></g></g><g><text x="101" y="16" text-anchor="middle">children[0]</text></g></g></g><g transform="translate(0,20)"><g transform="translate(0,0)"><rect class="string-text" x="0" y="0" width="44" height="24"/><text x="4" y="20">name</text></g><g transform="translate(44,0)"><rect class="string-text" x="0" y="0" width="303" height="24"/><text x="4" y="20">MONEY_MONTLY_OVERDRAWN &gt; 53.8350...</text></g></g><g><text x="174" y="16" text-anchor="middle">children[1]</text></g></g></g><g transform="translate(0,20)"><g transform="translate(0,0)"><rect class="string-text" x="0" y="0" width="44" height="24"/><text x="4" y="20">name</text></g><g transform="translate(44,0)"><rect class="string-text" x="0" y="0" width="193" height="24"/><text x="4" y="20">CREDIT_BALANCE &lt;= 350.0</text></g></g><g><text x="119" y="16" text-anchor="middle">children[0]</text></g></g><g class="vtree-node" transform="translate(408,0)"><path class="vtree-link" d="M115,32C115,79 -40,79 -40,126"/><g class="vtree-node" transform="translate(115,94)"><path class="vtree-link" d="M-155,32C-155,32 160,32 160,32"/><g class="vtree-node" transform="translate(-310,0)"><path class="vtree-link" d="M155,32C155,79 155,79 155,126"/><g class="vtree-node" transform="translate(155,94)"><g class="vtree-node" transform="translate(-99,0)"><g transform="translate(0,20)"><g transform="translate(0,0)"><rect class="string-text" x="0" y="0" width="44" height="24"/><text x="4" y="20">name</text></g><g transform="translate(44,0)"><rect class="string-text" x="0" y="0" width="153" height="24"/><text x="4" y="20">BUY_INSURANCE: No</text></g></g><g><text x="99" y="16" text-anchor="middle">children[0]</text></g></g></g><g transform="translate(0,20)"><g transform="translate(0,0)"><rect class="string-text" x="0" y="0" width="44" height="24"/><text x="4" y="20">name</text></g><g transform="translate(44,0)"><rect class="string-text" x="0" y="0" width="265" height="24"/><text x="4" y="20">MONTHLY_CHECKS_WRITTEN &lt;= 16.5</text></g></g><g><text x="155" y="16" text-anchor="middle">children[0]</text></g></g><g class="vtree-node" transform="translate(9,0)"><path class="vtree-link" d="M151,32C151,79 151,79 151,126"/><g class="vtree-node" transform="translate(151,94)"><g class="vtree-node" transform="translate(-101,0)"><g transform="translate(0,20)"><g transform="translate(0,0)"><rect class="string-text" x="0" y="0" width="44" height="24"/><text x="4" y="20">name</text></g><g transform="translate(44,0)"><rect class="string-text" x="0" y="0" width="158" height="24"/><text x="4" y="20">BUY_INSURANCE: Yes</text></g></g><g><text x="101" y="16" text-anchor="middle">children[0]</text></g></g></g><g transform="translate(0,20)"><g transform="translate(0,0)"><rect class="string-text" x="0" y="0" width="44" height="24"/><text x="4" y="20">name</text></g><g transform="translate(44,0)"><rect class="string-text" x="0" y="0" width="257" height="24"/><text x="4" y="20">MONTHLY_CHECKS_WRITTEN &gt; 16.5</text></g></g><g><text x="151" y="16" text-anchor="middle">children[1]</text></g></g></g><g transform="translate(0,20)"><g transform="translate(0,0)"><rect class="string-text" x="0" y="0" width="44" height="24"/><text x="4" y="20">name</text></g><g transform="translate(44,0)"><rect class="string-text" x="0" y="0" width="185" height="24"/><text x="4" y="20">CREDIT_BALANCE &gt; 350.0</text></g></g><g><text x="115" y="16" text-anchor="middle">children[1]</text></g></g></g><g transform="translate(0,20)"><g transform="translate(0,0)"><rect class="string-text" x="0" y="0" width="44" height="24"/><text x="4" y="20">name</text></g><g transform="translate(44,0)"><rect class="string-text" x="0" y="0" width="210" height="24"/><text x="4" y="20">CHECKING_AMOUNT &lt;= 128.0</text></g></g><g><text x="127" y="16" text-anchor="middle">children[0]</text></g></g><g class="vtree-node" transform="translate(715,0)"><path class="vtree-link" d="M123,32C123,79 -145,79 -145,126"/><g class="vtree-node" transform="translate(123,94)"><path class="vtree-link" d="M-268,32C-268,32 315,32 315,32"/><g class="vtree-node" transform="translate(-442,0)"><path class="vtree-link" d="M174,32C174,79 19,79 19,126"/><g class="vtree-node" transform="translate(174,94)"><path class="vtree-link" d="M-155,32C-155,32 160,32 160,32"/><g class="vtree-node" transform="translate(-310,0)"><path class="vtree-link" d="M155,32C155,79 155,79 155,126"/><g class="vtree-node" transform="translate(155,94)"><g class="vtree-node" transform="translate(-99,0)"><g transform="translate(0,20)"><g transform="translate(0,0)"><rect class="string-text" x="0" y="0" width="44" height="24"/><text x="4" y="20">name</text></g><g transform="translate(44,0)"><rect class="string-text" x="0" y="0" width="153" height="24"/><text x="4" y="20">BUY_INSURANCE: No</text></g></g><g><text x="99" y="16" text-anchor="middle">children[0]</text></g></g></g><g transform="translate(0,20)"><g transform="translate(0,0)"><rect class="string-text" x="0" y="0" width="44" height="24"/><text x="4" y="20">name</text></g><g transform="translate(44,0)"><rect class="string-text" x="0" y="0" width="265" height="24"/><text x="4" y="20">MONTHLY_CHECKS_WRITTEN &lt;= 17.5</text></g></g><g><text x="155" y="16" text-anchor="middle">children[0]</text></g></g><g class="vtree-node" transform="translate(9,0)"><path class="vtree-link" d="M151,32C151,79 151,79 151,126"/><g class="vtree-node" transform="translate(151,94)"><g class="vtree-node" transform="translate(-101,0)"><g transform="translate(0,20)"><g transform="translate(0,0)"><rect class="string-text" x="0" y="0" width="44" height="24"/><text x="4" y="20">name</text></g><g transform="translate(44,0)"><rect class="string-text" x="0" y="0" width="158" height="24"/><text x="4" y="20">BUY_INSURANCE: Yes</text></g></g><g><text x="101" y="16" text-anchor="middle">children[0]</text></g></g></g><g transform="translate(0,20)"><g transform="translate(0,0)"><rect class="string-text" x="0" y="0" width="44" height="24"/><text x="4" y="20">name</text></g><g transform="translate(44,0)"><rect class="string-text" x="0" y="0" width="257" height="24"/><text x="4" y="20">MONTHLY_CHECKS_WRITTEN &gt; 17.5</text></g></g><g><text x="151" y="16" text-anchor="middle">children[1]</text></g></g></g><g transform="translate(0,20)"><g transform="translate(0,0)"><rect class="string-text" x="0" y="0" width="44" height="24"/><text x="4" y="20">name</text></g><g transform="translate(44,0)"><rect class="string-text" x="0" y="0" width="303" height="24"/><text x="4" y="20">MONEY_MONTLY_OVERDRAWN &lt;= 54.174...</text></g></g><g><text x="174" y="16" text-anchor="middle">children[0]</text></g></g><g class="vtree-node" transform="translate(141,0)"><path class="vtree-link" d="M174,32C174,79 42,79 42,126"/><g class="vtree-node" transform="translate(174,94)"><path class="vtree-link" d="M-132,32C-132,32 136,32 136,32"/><g class="vtree-node" transform="translate(-263,0)"><path class="vtree-link" d="M131,32C131,79 131,79 131,126"/><g class="vtree-node" transform="translate(131,94)"><g class="vtree-node" transform="translate(-101,0)"><g transform="translate(0,20)"><g transform="translate(0,0)"><rect class="string-text" x="0" y="0" width="44" height="24"/><text x="4" y="20">name</text></g><g transform="translate(44,0)"><rect class="string-text" x="0" y="0" width="158" height="24"/><text x="4" y="20">BUY_INSURANCE: Yes</text></g></g><g><text x="101" y="16" text-anchor="middle">children[0]</text></g></g></g><g transform="translate(0,20)"><g transform="translate(0,0)"><rect class="string-text" x="0" y="0" width="44" height="24"/><text x="4" y="20">name</text></g><g transform="translate(44,0)"><rect class="string-text" x="0" y="0" width="218" height="24"/><text x="4" y="20">CHECKING_AMOUNT &lt;= 3239.5</text></g></g><g><text x="131" y="16" text-anchor="middle">children[0]</text></g></g><g class="vtree-node" transform="translate(9,0)"><path class="vtree-link" d="M127,32C127,79 127,79 127,126"/><g class="vtree-node" transform="translate(127,94)"><g class="vtree-node" transform="translate(-99,0)"><g transform="translate(0,20)"><g transform="translate(0,0)"><rect class="string-text" x="0" y="0" width="44" height="24"/><text x="4" y="20">name</text></g><g transform="translate(44,0)"><rect class="string-text" x="0" y="0" width="153" height="24"/><text x="4" y="20">BUY_INSURANCE: No</text></g></g><g><text x="99" y="16" text-anchor="middle">children[0]</text></g></g></g><g transform="translate(0,20)"><g transform="translate(0,0)"><rect class="string-text" x="0" y="0" width="44" height="24"/><text x="4" y="20">name</text></g><g transform="translate(44,0)"><rect class="string-text" x="0" y="0" width="210" height="24"/><text x="4" y="20">CHECKING_AMOUNT &gt; 3239.5</text></g></g><g><text x="127" y="16" text-anchor="middle">children[1]</text></g></g></g><g transform="translate(0,20)"><g transform="translate(0,0)"><rect class="string-text" x="0" y="0" width="44" height="24"/><text x="4" y="20">name</text></g><g transform="translate(44,0)"><rect class="string-text" x="0" y="0" width="303" height="24"/><text x="4" y="20">MONEY_MONTLY_OVERDRAWN &gt; 54.1749...</text></g></g><g><text x="174" y="16" text-anchor="middle">children[1]</text></g></g></g><g transform="translate(0,20)"><g transform="translate(0,0)"><rect class="string-text" x="0" y="0" width="44" height="24"/><text x="4" y="20">name</text></g><g transform="translate(44,0)"><rect class="string-text" x="0" y="0" width="202" height="24"/><text x="4" y="20">CHECKING_AMOUNT &gt; 128.0</text></g></g><g><text x="123" y="16" text-anchor="middle">children[1]</text></g></g></g><g transform="translate(0,20)"><g transform="translate(0,0)"><rect class="string-text" x="0" y="0" width="44" height="24"/><text x="4" y="20">name</text></g><g transform="translate(44,0)"><rect class="string-text" x="0" y="0" width="154" height="24"/><text x="4" y="20">BANK_FUNDS &gt; 225.5</text></g></g><g><text x="99" y="16" text-anchor="middle">children[1]</text></g></g></g><g transform="translate(0,0)"><rect class="string-text" x="0" y="0" width="44" height="24"/><text x="4" y="20">name</text></g><g transform="translate(44,0)"><rect class="string-text" x="0" y="0" width="38" height="24"/><text x="4" y="20">Root</text></g></g></g></g></svg>